<svg data-v-2cb57da0="" version="1.0" xmlns="http://www.w3.org/2000/svg" xmlns:xlink="http://www.w3.org/1999/xlink" width="100%" height="100%" viewBox="0 0 340.000000 250.000000" preserveAspectRatio="xMidYMid meet" color-interpolation-filters="sRGB" style="margin: auto;"><rect data-v-2cb57da0="" x="0" y="0" width="100%" height="100%" fill="#feffff" fill-opacity="1" class="background"></rect> <!----> <g data-v-2cb57da0="" fill="#333" class="iconlettersvg-g iconlettersvg" transform="translate(62.454505920410156,102.49969673156738)"><g><g class="tp-name"><g transform="scale(1)"><g transform="translate(0, 0)"><g class="name-imagesvg"><g><rect fill="#333" fill-opacity="0" stroke-width="2" x="0" y="0" width="39.232962032645624" height="45" class="image-rect"></rect> <svg x="0" y="0" width="39.232962032645624" height="45" filtersec="colorsb8501949036" class="image-svg-svg primary" style="overflow: visible;"><svg xmlns="http://www.w3.org/2000/svg" viewBox="0 0 12.23 13.95"><title>资源 43</title><path d="M1.6 14A1.6 1.6 0 0 1 0 12.35V1.6a1.6 1.6 0 0 1 3.2 0v10.75A1.6 1.6 0 0 1 1.6 14z" fill="#d72f5a"></path><path d="M10.63 14A1.6 1.6 0 0 1 9 12.35V1.6a1.6 1.6 0 1 1 3.2 0v10.75A1.6 1.6 0 0 1 10.63 14z" fill="#7d5f92"></path><path d="M10.63 14a1.63 1.63 0 0 1-1.23-.57L.38 2.66A1.6 1.6 0 0 1 2.83.6l9 10.72a1.6 1.6 0 0 1-.19 2.25 1.64 1.64 0 0 1-1.01.43z" fill="#70b0be"></path></svg></svg> <!----></g></g></g><g transform="translate(39.232962032645624, 0)"><g class="name-imagesvg"><g><rect fill="#333" fill-opacity="0" stroke-width="2" x="0" y="0" width="44.42626322028186" height="45" class="image-rect"></rect> <svg x="0" y="0" width="44.42626322028186" height="45" filtersec="colorsb3628391704" class="image-svg-svg primary" style="overflow: visible;"><svg xmlns="http://www.w3.org/2000/svg" viewBox="0 0 13.81 13.95"><title>资源 33</title><path d="M11.19 11.93H2.61a1.6 1.6 0 1 1 0-3.2h8.58a1.6 1.6 0 0 1 0 3.2z" fill="#e88733"></path><path d="M1.6 14a1.57 1.57 0 0 1-.7-.17 1.59 1.59 0 0 1-.74-2.14L5.43.9a1.6 1.6 0 1 1 2.88 1.41L3 13.05a1.61 1.61 0 0 1-1.4.95z" fill="#7d5f92"></path><path d="M12.21 14a1.61 1.61 0 0 1-1.44-.9L5.5 2.31A1.6 1.6 0 1 1 8.38.9l5.27 10.74a1.59 1.59 0 0 1-.74 2.14 1.57 1.57 0 0 1-.7.22z" fill="#70b0be"></path></svg></svg> <!----></g></g></g><g transform="translate(83.65922525292748, 0)"><g class="name-imagesvg"><g><rect fill="#333" fill-opacity="0" stroke-width="2" x="0" y="0" width="39.232962032645624" height="45" class="image-rect"></rect> <svg x="0" y="0" width="39.232962032645624" height="45" filtersec="colorsb7662765446" class="image-svg-svg primary" style="overflow: visible;"><svg xmlns="http://www.w3.org/2000/svg" viewBox="0 0 12.23 13.95"><title>资源 43</title><path d="M1.6 14A1.6 1.6 0 0 1 0 12.35V1.6a1.6 1.6 0 0 1 3.2 0v10.75A1.6 1.6 0 0 1 1.6 14z" fill="#d72f5a"></path><path d="M10.63 14A1.6 1.6 0 0 1 9 12.35V1.6a1.6 1.6 0 1 1 3.2 0v10.75A1.6 1.6 0 0 1 10.63 14z" fill="#7d5f92"></path><path d="M10.63 14a1.63 1.63 0 0 1-1.23-.57L.38 2.66A1.6 1.6 0 0 1 2.83.6l9 10.72a1.6 1.6 0 0 1-.19 2.25 1.64 1.64 0 0 1-1.01.43z" fill="#70b0be"></path></svg></svg> <!----></g></g></g><g transform="translate(122.8921872855731, 0)"><g class="name-imagesvg"><g><rect fill="#333" fill-opacity="0" stroke-width="2" x="0" y="0" width="10.290737898640094" height="45" class="image-rect"></rect> <svg x="0" y="0" width="10.290737898640094" height="45" filtersec="colorsb3366656987" class="image-svg-svg primary" style="overflow: visible;"><svg xmlns="http://www.w3.org/2000/svg" viewBox="0 0 3.2 13.95"><title>资源 44</title><path d="M1.6 14A1.6 1.6 0 0 1 0 12.35V1.6a1.6 1.6 0 0 1 3.2 0v10.75A1.6 1.6 0 0 1 1.6 14z" fill="#d72f5a"></path></svg></svg> <!----></g></g></g><g transform="translate(133.1829251842132, 0)"><g class="name-imagesvg"><g><rect fill="#333" fill-opacity="0" stroke-width="2" x="0" y="0" width="36.90807022993427" height="45" class="image-rect"></rect> <svg x="0" y="0" width="36.90807022993427" height="45" filtersec="colorsb3965377037" class="image-svg-svg primary" style="overflow: visible;"><svg xmlns="http://www.w3.org/2000/svg" viewBox="0 0 11.37 13.95"><title>资源 37</title><path d="M9.77 13.88a1.55 1.55 0 0 1-.87-.26L.73 8.35a1.6 1.6 0 0 1 1.74-2.69l8.17 5.27a1.6 1.6 0 0 1-.87 3z" fill="#70b0be"></path><path d="M1.6 8.54a1.6 1.6 0 0 1-.87-2.95L8.9.32A1.6 1.6 0 1 1 10.64 3L2.47 8.28a1.55 1.55 0 0 1-.87.26z" fill="#d72f5a"></path><path d="M1.6 14A1.6 1.6 0 0 1 0 12.35V1.6a1.6 1.6 0 0 1 3.2 0v10.75A1.6 1.6 0 0 1 1.6 14z" fill="#e88733"></path></svg></svg> <!----></g></g></g><g transform="translate(170.09099541414747, 0)"><g class="name-imagesvg"><g><rect fill="#333" fill-opacity="0" stroke-width="2" x="0" y="0" width="45" height="45" class="image-rect"></rect> <svg x="0" y="0" width="45" height="45" filtersec="colorsb8925941692" class="image-svg-svg primary" style="overflow: visible;"><svg xmlns="http://www.w3.org/2000/svg" viewBox="0 0 13.95 13.95"><title>资源 47</title><path d="M7 14a7 7 0 0 1-7-7 1.6 1.6 0 0 1 3.2 0 3.78 3.78 0 1 0 7.55 0A1.6 1.6 0 0 1 14 7a7 7 0 0 1-7 7z" fill="#70b0be"></path><path d="M12.35 8.57A1.59 1.59 0 0 1 10.75 7 3.78 3.78 0 0 0 3.2 7 1.6 1.6 0 0 1 0 7a7 7 0 0 1 14 0 1.6 1.6 0 0 1-1.65 1.57z" fill="#e88733"></path></svg></svg> <!----></g></g></g></g></g></g> <!----></g><defs v-gra="od"></defs></svg>