<svg data-v-2cb57da0="" version="1.0" xmlns="http://www.w3.org/2000/svg" xmlns:xlink="http://www.w3.org/1999/xlink" width="100%" height="100%" viewBox="0 0 340.000000 250.000000" preserveAspectRatio="xMidYMid meet" color-interpolation-filters="sRGB" style="margin: auto;"><rect data-v-2cb57da0="" x="0" y="0" width="100%" height="100%" fill="#feffff" fill-opacity="1" class="background"></rect> <!----> <g data-v-2cb57da0="" fill="#333" class="iconlettersvg-g iconlettersvg" transform="translate(84.6497573852539,102.49993133544922)"><g><g class="tp-name"><g transform="scale(1)"><g transform="translate(0, 0)"><g class="name-imagesvg"><g><rect fill="#333" fill-opacity="0" stroke-width="2" x="0" y="0" width="25.9591538550149" height="45" class="image-rect"></rect> <svg x="0" y="0" width="25.9591538550149" height="45" filtersec="colorsb4195829130" class="image-svg-svg primary" style="overflow: visible;"><svg xmlns="http://www.w3.org/2000/svg" viewBox="0 0 12.57 21.79"><title>资源 8</title><path fill="none" d="M0 0h12.57v21.79H0z"></path><path fill="#e73656" d="M0 10.48v11.31h7.71L0 10.48z"></path><path fill="#00adb2" d="M7.71 0H0l7.71 11.75V0z"></path></svg></svg> <!----></g></g></g><g transform="translate(25.9591538550149, 0)"><g class="name-imagesvg"><g><rect fill="#333" fill-opacity="0" stroke-width="2" x="0" y="0" width="32.65029779671919" height="45" class="image-rect"></rect> <svg x="0" y="0" width="32.65029779671919" height="45" filtersec="colorsb5047332033" class="image-svg-svg primary" style="overflow: visible;"><svg xmlns="http://www.w3.org/2000/svg" viewBox="0 0 15.81 21.79"><title>资源 26</title><path fill="#e73656" d="M0 0v6.9L2.77 0H0z"></path><path fill="#00adb2" d="M15.81 0H7.16l8.65 21.79V0z"></path><path fill="#e73656" d="M5.01 6.77h-.09l-2.24 7.45h4.56L5.01 6.77z"></path><path fill="#fabe00" d="M8.72 18.64H1.15L0 21.79h9.78l-1.06-3.15z"></path></svg></svg> <!----></g></g></g><g transform="translate(58.60945165173409, 0)"><g class="name-imagesvg"><g><rect fill="#333" fill-opacity="0" stroke-width="2" x="0" y="0" width="25.9591538550149" height="45" class="image-rect"></rect> <svg x="0" y="0" width="25.9591538550149" height="45" filtersec="colorsb5422428786" class="image-svg-svg primary" style="overflow: visible;"><svg xmlns="http://www.w3.org/2000/svg" viewBox="0 0 12.57 21.79"><title>资源 8</title><path fill="none" d="M0 0h12.57v21.79H0z"></path><path fill="#e73656" d="M0 10.48v11.31h7.71L0 10.48z"></path><path fill="#00adb2" d="M7.71 0H0l7.71 11.75V0z"></path></svg></svg> <!----></g></g></g><g transform="translate(84.568605506749, 0)"><g class="name-imagesvg"><g><rect fill="#333" fill-opacity="0" stroke-width="2" x="0" y="0" width="12.143184673355837" height="45" class="image-rect"></rect> <svg x="0" y="0" width="12.143184673355837" height="45" filtersec="colorsb9534814408" class="image-svg-svg primary" style="overflow: visible;"><svg xmlns="http://www.w3.org/2000/svg" viewBox="0 0 5.88 21.79"><title>资源 6</title><path fill="#00adb2" d="M0 0h5.88v21.79H0z"></path></svg></svg> <!----></g></g></g><g transform="translate(96.71179018010483, 0)"><g class="name-imagesvg"><g><rect fill="#333" fill-opacity="0" stroke-width="2" x="0" y="0" width="35.727394812222016" height="45" class="image-rect"></rect> <svg x="0" y="0" width="35.727394812222016" height="45" filtersec="colorsb404583618" class="image-svg-svg primary" style="overflow: visible;"><svg xmlns="http://www.w3.org/2000/svg" viewBox="0 0 17.3 21.79"><title>资源 9</title><path fill="none" d="M0 0h17.3v21.79H0z"></path><path fill="#e73656" d="M11.47 0H4.79v9.81L11.47 0z"></path><path fill="#fabe00" d="M4.79 21.79h6l-6-9.42v9.42z"></path><path fill="#00adb2" d="M17.3 21.79V0l-7.17 10.53 7.17 11.26z"></path></svg></svg> <!----></g></g></g><g transform="translate(132.43918499232683, 0)"><g class="name-imagesvg"><g><rect fill="#333" fill-opacity="0" stroke-width="2" x="0" y="0" width="38.26131094599207" height="45" class="image-rect"></rect> <svg x="0" y="0" width="38.26131094599207" height="45" filtersec="colorsb6094244722" class="image-svg-svg primary" style="overflow: visible;"><svg xmlns="http://www.w3.org/2000/svg" viewBox="0 0 18.53 21.79"><title>资源 3</title><path d="M7.48 4.71c-3.72 0-5.73 3.18-5.73 6.13 0 3.24 2.18 6.24 5.79 6.24 3.8 0 5.64-3.46 5.64-6.16s-1.84-6.21-5.7-6.21z" fill="#fabe00"></path><path d="M7.48 21.79h11.05V11.11A10.86 10.86 0 0 1 7.48 21.79z" fill="#00adb2"></path><path d="M0 21.79h7.36A11 11 0 0 1 0 19z" fill="#fabe00"></path><path d="M18.53 10.69V0H7.45a10.88 10.88 0 0 1 11.08 10.69z" fill="#e73656"></path><path d="M0 0v2.77A10.91 10.91 0 0 1 7.45 0z" fill="#00adb2"></path></svg></svg> <!----></g></g></g></g></g></g> <!----></g><defs v-gra="od"></defs></svg>