<svg data-noselect="" viewBox="0 0 800 600" width="800" height="600" preserveAspectRatio="none" version="1.1" xmlns="http://www.w3.org/2000/svg" xmlns:xlink="http://www.w3.org/1999/xlink" class="svg-canvas"><defs></defs> <g id="background" data-noselect=""><rect fill="#FFFFFF" width="800" height="600" data-noselect=""></rect> <!----></g> <g id="shape_JZfIU9uh3q" transform="translate(319.65917882979,161.38255648344) rotate(0,92.867812399435,92.867812399435) scale(1,1)" filter="" style="opacity: 1;"><g><rect fill="rgba(0,0,0,0)" width="180.68164234042" height="205.73562479887" x="-10" y="-10"></rect><svg version="1.1" id="图层_1" xmlns="http://www.w3.org/2000/svg" xmlns:xlink="http://www.w3.org/1999/xlink" x="0px" y="0px" viewBox="0 0 54.3288688659668 62.79999542236328" style="enable-background:new 0 0 54.4 62.8;" xml:space="preserve" width="160.68164234042" height="185.73562479887" class="style-removed" preserveAspectRatio="none" data-parent="shape_JZfIU9uh3q">
<g>
	<g>
		<path d="M27.1,54.2C12.2,54.2,0,42,0,27.1C0,12.2,12.2,0,27.1,0s27.1,12.2,27.1,27.1C54.2,42,42,54.2,27.1,54.2z M27.1,1.1
			c-14.3,0-26,11.6-26,26c0,14.3,11.6,26,26,26s26-11.6,26-26C53.1,12.8,41.4,1.1,27.1,1.1z" fill="#000000" stroke-width="0"></path>
	</g>
	<g>
		<path d="M54.3,62.8C39.1,45.2,23.5,27.7,8.2,10.1l46.1,0C54.2,27.7,54.4,45.2,54.3,62.8" fill="#000000" stroke-width="0"></path>
	</g>
	<g>
		<rect x="4.7" y="56.6" width="6.1" height="6.1" fill="#000000" stroke-width="0"></rect>
	</g>
	<g>
		<rect x="7.2" y="10.6" width="1.1" height="49" fill="#000000" stroke-width="0"></rect>
	</g>
	<g>
		<path d="M7.8,49c-0.1,0-0.2,0-0.2,0c-0.2-0.1-0.3-0.3-0.3-0.5V10.9c0-0.3,0.3-0.6,0.6-0.6h38.9c0.2,0,0.4,0.1,0.5,0.4
			c0.1,0.2,0,0.5-0.1,0.6L8.2,48.8C8.1,48.9,7.9,49,7.8,49z M8.4,11.4v35.7l36.9-35.7H8.4z" fill="#000000" stroke-width="0"></path>
	</g>
</g>
</svg></g></g><g id="shape_RwMyvYnIc6" transform="translate(268.49000077256,122.35201351655996) rotate(0,131.51,278.76543000000004) scale(1,1)" filter="" style="opacity: 1;"><g><svg xmlns="http://www.w3.org/2000/svg" version="1.1" xmlns:xlink="http://www.w3.org/1999/xlink" width="413.04" height="557.5308600000001" viewBox="0 0 413.04 557.5308600000001"><g data-width="112.14555022398" transform="translate(75.43722488801001, 0)"><path d="M11.25-24.38L11.25-24.38Q10.80-21.90 10.09-19.43Q9.38-16.95 8.36-14.59Q7.35-12.23 5.96-10.16Q4.58-8.10 2.70-6.45L2.70-6.45Q2.18-6.00 1.46-6.26Q0.75-6.53 0.83-7.28L0.83-7.28Q1.28-10.73 2.06-14.14Q2.85-17.55 3.71-20.89Q4.58-24.23 5.48-27.45Q6.38-30.68 7.05-33.75L7.05-33.75Q7.20-34.50 7.88-34.84Q8.55-35.18 9.34-35.07Q10.13-34.95 10.91-34.47Q11.70-33.98 12.15-33.15L12.15-33.15Q14.33-29.33 16.50-25.47Q18.68-21.60 21.08-17.78L21.08-17.78Q21.23-19.73 21.27-21.60Q21.30-23.48 21.45-25.35L21.45-25.35Q21.53-26.93 21.49-28.62Q21.45-30.30 21.53-31.92Q21.60-33.53 21.94-35.03Q22.28-36.53 23.10-37.81L23.10-37.81Q23.48-38.41 24.12-38.48Q24.75-38.56 25.43-38.29Q26.10-38.03 26.70-37.43Q27.30-36.83 27.60-36.15L27.60-36.15Q28.28-34.43 28.47-32.74Q28.65-31.05 28.62-29.37Q28.58-27.68 28.39-26.03Q28.20-24.38 28.13-22.80L28.13-22.80Q27.98-19.13 27.83-15.49Q27.68-11.85 27.45-8.18L27.45-8.18Q27.38-7.35 26.82-6.71Q26.25-6.08 25.43-5.85Q24.60-5.63 23.67-5.93Q22.73-6.23 21.90-7.28L21.90-7.28Q18.68-11.33 16.13-15.60Q13.58-19.88 11.25-24.38Z" transform="translate(0 303.26543000000004) " fill="#313131" stroke="#313131" stroke-width="0.125" data-glyph-w="19.40352003733" data-glyph-h="106.28917" data-glyph-ascender="78.23543" data-glyph-descender="-28.05374"></path><path d="M8.55-7.65L8.55-7.65Q8.40-5.55 7.13-4.61Q5.85-3.68 4.39-3.79Q2.93-3.90 1.84-5.06Q0.75-6.23 0.98-8.33L0.98-8.33Q1.28-11.78 2.48-15.64Q3.68-19.50 5.55-23.22Q7.43-26.93 9.90-30.23Q12.38-33.53 15.23-35.85L15.23-35.85Q15.30-36.38 15.83-36.75L15.83-36.75Q18.15-37.81 20.10-37.39Q22.05-36.98 23.63-35.67Q25.20-34.35 26.40-32.48Q27.60-30.60 28.50-28.73L28.50-28.73Q29.48-26.63 30.60-23.97Q31.73-21.30 32.29-18.56Q32.85-15.83 32.59-13.20Q32.33-10.58 30.60-8.55L30.60-8.55Q30.00-7.88 29.18-7.76Q28.35-7.65 27.60-7.95Q26.85-8.25 26.33-8.93Q25.80-9.60 25.80-10.50L25.80-10.50Q25.65-13.13 25.39-15.49Q25.13-17.85 24.53-20.25L24.53-20.25Q23.85-19.13 22.50-18.56Q21.15-18.00 19.54-17.81Q17.93-17.63 16.35-17.70Q14.78-17.78 13.65-18.00L13.65-18.00Q13.20-18.08 12.56-18.19Q11.93-18.30 11.25-18.45L11.25-18.45Q10.20-15.83 9.45-13.16Q8.70-10.50 8.55-7.65ZM17.40-33.98L17.40-33.98Q16.58-31.13 15.45-28.43Q14.33-25.73 13.13-22.95L13.13-22.95Q14.63-23.10 16.16-23.33Q17.70-23.55 19.20-23.93L19.20-23.93Q20.10-24.08 21.23-24.30Q22.35-24.53 23.33-24.15L23.33-24.15Q22.88-25.43 22.35-26.89Q21.83-28.35 21.15-29.74Q20.48-31.13 19.54-32.25Q18.60-33.38 17.40-33.98Z" transform="translate(19.40352003733 303.26543000000004) " fill="#313131" stroke="#313131" stroke-width="0.125" data-glyph-w="23.60408003733" data-glyph-h="106.28917" data-glyph-ascender="78.23543" data-glyph-descender="-28.05374"></path><path d="M11.25-24.38L11.25-24.38Q10.80-21.90 10.09-19.43Q9.38-16.95 8.36-14.59Q7.35-12.23 5.96-10.16Q4.58-8.10 2.70-6.45L2.70-6.45Q2.18-6.00 1.46-6.26Q0.75-6.53 0.83-7.28L0.83-7.28Q1.28-10.73 2.06-14.14Q2.85-17.55 3.71-20.89Q4.58-24.23 5.48-27.45Q6.38-30.68 7.05-33.75L7.05-33.75Q7.20-34.50 7.88-34.84Q8.55-35.18 9.34-35.07Q10.13-34.95 10.91-34.47Q11.70-33.98 12.15-33.15L12.15-33.15Q14.33-29.33 16.50-25.47Q18.68-21.60 21.08-17.78L21.08-17.78Q21.23-19.73 21.27-21.60Q21.30-23.48 21.45-25.35L21.45-25.35Q21.53-26.93 21.49-28.62Q21.45-30.30 21.53-31.92Q21.60-33.53 21.94-35.03Q22.28-36.53 23.10-37.81L23.10-37.81Q23.48-38.41 24.12-38.48Q24.75-38.56 25.43-38.29Q26.10-38.03 26.70-37.43Q27.30-36.83 27.60-36.15L27.60-36.15Q28.28-34.43 28.47-32.74Q28.65-31.05 28.62-29.37Q28.58-27.68 28.39-26.03Q28.20-24.38 28.13-22.80L28.13-22.80Q27.98-19.13 27.83-15.49Q27.68-11.85 27.45-8.18L27.45-8.18Q27.38-7.35 26.82-6.71Q26.25-6.08 25.43-5.85Q24.60-5.63 23.67-5.93Q22.73-6.23 21.90-7.28L21.90-7.28Q18.68-11.33 16.13-15.60Q13.58-19.88 11.25-24.38Z" transform="translate(43.007600074660004 303.26543000000004) " fill="#313131" stroke="#313131" stroke-width="0.125" data-glyph-w="19.40352003733" data-glyph-h="106.28917" data-glyph-ascender="78.23543" data-glyph-descender="-28.05374"></path><path d="M9.30-32.03L9.30-32.03Q6.23-33.30 4.50-36.00L4.50-36.00Q4.05-36.83 4.54-37.43Q5.03-38.03 5.70-37.96L5.70-37.96Q7.88-37.81 9.90-37.17Q11.93-36.53 14.10-36.38L14.10-36.38L15.83-36.38Q17.70-36.68 18.56-35.59Q19.43-34.50 19.43-33.15Q19.43-31.80 18.53-30.72Q17.63-29.63 16.05-30.00L16.05-30.00Q15.68-30.15 15.26-30.19Q14.85-30.23 14.48-30.38L14.48-30.38Q14.03-28.20 13.95-25.95Q13.88-23.70 13.95-21.49Q14.03-19.28 14.14-17.03Q14.25-14.78 14.10-12.60L14.10-12.60Q16.35-12.90 18.60-13.05L18.60-13.05Q19.88-13.05 20.70-12.11Q21.53-11.18 21.75-10.01Q21.98-8.85 21.53-7.73Q21.08-6.60 19.88-6.23L19.88-6.23Q18.00-5.63 15.23-5.10Q12.45-4.58 9.64-4.65Q6.83-4.73 4.46-5.66Q2.10-6.60 1.05-8.93L1.05-8.93Q0.75-9.53 1.16-10.13Q1.58-10.73 2.18-10.73L2.18-10.73L6.98-11.48Q7.05-16.43 7.43-21.75Q7.80-27.08 9.30-32.03Z" transform="translate(62.41112011199 303.26543000000004) " fill="#313131" stroke="#313131" stroke-width="0.125" data-glyph-w="12.72763003733" data-glyph-h="106.28917" data-glyph-ascender="78.23543" data-glyph-descender="-28.05374"></path><path d="M27.15-14.40L27.15-14.40Q27.90-13.95 28.32-13.24Q28.73-12.53 28.77-11.74Q28.80-10.95 28.43-10.20Q28.05-9.45 27.30-9.00L27.30-9.00Q25.95-8.10 24.30-7.95Q22.65-7.80 20.93-8.06Q19.20-8.33 17.51-8.93Q15.83-9.53 14.48-10.20L14.48-10.20Q10.95-11.78 8.10-14.33L8.10-14.33Q8.10-12.83 8.29-11.55Q8.48-10.28 9.00-9.45L9.00-9.45Q10.13-8.03 9.64-6.60Q9.15-5.18 7.91-4.35Q6.68-3.53 5.14-3.60Q3.60-3.68 2.55-5.25L2.55-5.25Q1.43-6.90 1.09-8.89Q0.75-10.88 0.83-12.94Q0.90-15.00 1.28-17.06Q1.65-19.13 1.95-21.00L1.95-21.00Q2.78-26.03 4.01-31.20Q5.25-36.38 7.58-41.11L7.58-41.11Q7.65-41.63 8.10-41.93Q8.55-42.23 9.04-42.23Q9.53-42.23 9.94-41.89Q10.35-41.56 10.35-40.88L10.35-40.88Q10.35-37.05 9.83-33.27Q9.30-29.48 9.08-25.65L9.08-25.65Q10.73-26.78 12.45-28.13L12.45-28.13Q13.95-29.25 15.23-30.53Q16.50-31.80 18.15-32.70L18.15-32.70Q18.53-32.93 19.05-32.67Q19.58-32.40 19.43-31.88L19.43-31.88Q18.98-28.50 16.69-25.54Q14.40-22.58 11.48-20.25L11.48-20.25Q14.03-17.93 17.40-16.65L17.40-16.65Q18.60-16.20 19.88-16.01Q21.15-15.83 22.39-15.68Q23.63-15.53 24.87-15.26Q26.10-15.00 27.15-14.40Z" transform="translate(75.13875014932 303.26543000000004) " fill="#313131" stroke="#313131" stroke-width="0.125" data-glyph-w="19.55354003733" data-glyph-h="106.28917" data-glyph-ascender="78.23543" data-glyph-descender="-28.05374"></path><path d="M18.00-10.13L18.00-10.13Q15.08-8.03 11.96-7.88Q8.85-7.73 6.34-9.15Q3.83-10.58 2.29-13.28Q0.75-15.98 0.90-19.58L0.90-19.58Q1.05-22.13 2.29-24.57Q3.53-27.00 5.70-28.28L5.70-28.28Q5.93-28.43 6.19-28.54Q6.45-28.65 6.68-28.80L6.68-28.80Q7.43-30.83 9.34-31.92Q11.25-33.00 13.61-33.27Q15.98-33.53 18.41-32.97Q20.85-32.40 22.65-31.13L22.65-31.13Q25.65-28.95 26.18-26.03Q26.70-23.10 25.65-20.10Q24.60-17.10 22.47-14.44Q20.33-11.78 18.00-10.13ZM18.23-26.18L18.23-26.18Q17.10-26.85 15.83-26.97Q14.55-27.08 13.28-26.74Q12.00-26.40 10.91-25.73Q9.83-25.05 9.08-24.08L9.08-24.08Q8.78-23.70 8.29-23.52Q7.80-23.33 7.43-23.48L7.43-23.48Q6.90-22.65 6.90-22.35L6.90-22.35Q6.30-20.18 6.90-18.08L6.90-18.08Q7.35-16.28 8.33-15.41Q9.30-14.55 10.54-14.48Q11.78-14.40 13.13-15.00Q14.48-15.60 15.60-16.73L15.60-16.73Q16.35-17.48 17.40-18.71Q18.45-19.95 19.13-21.30Q19.80-22.65 19.73-23.97Q19.65-25.28 18.23-26.18Z" transform="translate(94.69229018665 303.26543000000004) " fill="#313131" stroke="#313131" stroke-width="0.125" data-glyph-w="17.45326003733" data-glyph-h="106.28917" data-glyph-ascender="78.23543" data-glyph-descender="-28.05374"></path></g></svg></g></g></svg>