<svg data-v-2cb57da0="" version="1.0" xmlns="http://www.w3.org/2000/svg" xmlns:xlink="http://www.w3.org/1999/xlink" width="100%" height="100%" viewBox="0 0 340.000000 250.000000" preserveAspectRatio="xMidYMid meet" color-interpolation-filters="sRGB" style="margin: auto;"><rect data-v-2cb57da0="" x="0" y="0" width="100%" height="100%" fill="#feffff" fill-opacity="1" class="background"></rect> <!----> <g data-v-2cb57da0="" fill="#333" class="iconlettersvg-g iconlettersvg" transform="translate(63.125,102.5)"><g><g class="tp-name"><g transform="scale(1)"><g transform="translate(0, 0)"><g class="name-imagesvg"><g><rect fill="#333" fill-opacity="0" stroke-width="2" x="0" y="0" width="33.75" height="45" class="image-rect"></rect> <svg x="0" y="0" width="33.75" height="45" filtersec="colorsb7845553639" class="image-svg-svg primary" style="overflow: visible;"><svg xmlns="http://www.w3.org/2000/svg" viewBox="0 0 351 468"><path d="M324.19 324.19v41.43a2.44 2.44 0 0 1-4.21 1.69L234 277 31.69 64.59v374.16a2.44 2.44 0 0 1-4.88 0V58.5A2.44 2.44 0 0 1 31 56.82L234 270l85.31 89.58v-40.27L234 234 0 0v468h351V351z" fill="#94d30e" opacity=".7"></path><path d="M234 0v270l85.31 89.58V29.25a2.44 2.44 0 0 1 4.88 0v336.37a2.44 2.44 0 0 1-4.21 1.69L234 277v191h117V0z" fill="#2f97dd" opacity=".7"></path></svg></svg> <!----></g></g></g><g transform="translate(33.75, 0)"><g class="name-imagesvg"><g><rect fill="#333" fill-opacity="0" stroke-width="2" x="0" y="0" width="45" height="45" class="image-rect"></rect> <svg x="0" y="0" width="45" height="45" filtersec="colorsb1240972116" class="image-svg-svg primary" style="overflow: visible;"><svg xmlns="http://www.w3.org/2000/svg" viewBox="0 0 468 468"><path d="M468 468h-26.82a2.28 2.28 0 0 0-.25-1.08L237 56.6a2.44 2.44 0 0 0-2.17-1.35 2.44 2.44 0 0 0-2.18 1.35L27.07 466.91a2.49 2.49 0 0 0-.26 1.09H0L234 0zM348.67 292.24L277 148.11l-42.23-85-199.9 399 131.83-71.39zM163.38 398.13L34.37 468H436l-85.16-171.39z" fill="#fa991a" opacity=".7"></path><path d="M348.67 292.24l-181.94 98.54L277 148.11zm2.17 4.37L163.38 398.13 131.62 468H436z" fill="#f9d611" opacity=".7"></path></svg></svg> <!----></g></g></g><g transform="translate(78.75, 0)"><g class="name-imagesvg"><g><rect fill="#333" fill-opacity="0" stroke-width="2" x="0" y="0" width="33.75" height="45" class="image-rect"></rect> <svg x="0" y="0" width="33.75" height="45" filtersec="colorsb7453542049" class="image-svg-svg primary" style="overflow: visible;"><svg xmlns="http://www.w3.org/2000/svg" viewBox="0 0 351 468"><path d="M324.19 324.19v41.43a2.44 2.44 0 0 1-4.21 1.69L234 277 31.69 64.59v374.16a2.44 2.44 0 0 1-4.88 0V58.5A2.44 2.44 0 0 1 31 56.82L234 270l85.31 89.58v-40.27L234 234 0 0v468h351V351z" fill="#94d30e" opacity=".7"></path><path d="M234 0v270l85.31 89.58V29.25a2.44 2.44 0 0 1 4.88 0v336.37a2.44 2.44 0 0 1-4.21 1.69L234 277v191h117V0z" fill="#2f97dd" opacity=".7"></path></svg></svg> <!----></g></g></g><g transform="translate(112.5, 0)"><g class="name-imagesvg"><g><rect fill="#333" fill-opacity="0" stroke-width="2" x="0" y="0" width="11.25" height="45" class="image-rect"></rect> <svg x="0" y="0" width="11.25" height="45" filtersec="colorsb3628372390" class="image-svg-svg primary" style="overflow: visible;"><svg xmlns="http://www.w3.org/2000/svg" viewBox="0 0 117 468"><path d="M0 0v468h117V0zm31.69 438.75a2.44 2.44 0 0 1-4.88 0V29.25a2.44 2.44 0 0 1 4.88 0z" fill="#6228f1" opacity=".7"></path></svg></svg> <!----></g></g></g><g transform="translate(123.75, 0)"><g class="name-imagesvg"><g><rect fill="#333" fill-opacity="0" stroke-width="2" x="0" y="0" width="45" height="45" class="image-rect"></rect> <svg x="0" y="0" width="45" height="45" filtersec="colorsb2291484154" class="image-svg-svg primary" style="overflow: visible;"><svg xmlns="http://www.w3.org/2000/svg" viewBox="0 0 468 468"><path d="M117 0H0v468l117-156 54.76-73L117 181.35l-43.92-46.23-41.39 41.39v218.37a2.44 2.44 0 0 1-4.88 0V29.25a2.44 2.44 0 0 1 4.88 0v140.37l69-69L117 84.3l56.78-56.77a2.43 2.43 0 0 1 3.44 3.47L117 91.2l-12.9 12.9-27.57 27.57 40.47 42.6L174.72 235l25.85-34.46L351 0z" fill="#f9d611" opacity=".7"></path><path d="M0 0v468h117V181.35l-43.92-46.23-41.39 41.39v218.37a2.44 2.44 0 0 1-4.88 0V29.25a2.44 2.44 0 0 1 4.88 0v140.37l69-69L117 84.3V0z" fill="#fd2965" opacity=".7"></path><path fill="#fd2965" opacity=".7" d="M76.53 131.67l40.47 42.6V91.2l-12.9 12.9-27.57 27.57z"></path><path d="M200.57 200.57L117 117l-12.9-12.9-27.57 27.57 40.47 42.6L174.72 235l178 187.42a2.44 2.44 0 0 1-3.54 3.35L171.76 239 117 181.35l-43.92-46.23-41.39 41.39v218.37a2.44 2.44 0 0 1-4.88 0V29.25a2.43 2.43 0 0 1 .72-1.72L0 0v468h468z" fill="#fa991a" opacity=".7"></path><path fill="#fa991a" opacity=".7" d="M31.69 31.69v137.93l68.96-68.97-68.96-68.96z"></path></svg></svg> <!----></g></g></g><g transform="translate(168.75, 0)"><g class="name-imagesvg"><g><rect fill="#333" fill-opacity="0" stroke-width="2" x="0" y="0" width="45" height="45" class="image-rect"></rect> <svg x="0" y="0" width="45" height="45" filtersec="colorsb9841384775" class="image-svg-svg primary" style="overflow: visible;"><svg xmlns="http://www.w3.org/2000/svg" viewBox="0 0 468 468"><path d="M234 0C104.77 0 0 104.77 0 234s104.77 234 234 234 234-104.77 234-234S363.23 0 234 0zm-7.31 441.19c-110.21 0-199.88-89.67-199.88-199.88S116.48 41.44 226.69 41.44c81.78 0 152.23 49.37 183.14 119.87a200 200 0 0 1-183.14 279.88z" fill="#fd2965" opacity=".7"></path><path d="M396.84 146.16a195.13 195.13 0 0 0-170.15-99.85c-107.53 0-195 87.48-195 195s87.47 195 195 195a194.91 194.91 0 0 0 170.15-290.15z" fill="#fd2965" opacity=".7"></path><path d="M396.84 146.16a146.23 146.23 0 1 0-25.26 225.51 194.61 194.61 0 0 0 25.26-225.51z" fill="#f9d611" opacity=".7"></path><path d="M409.83 161.31a199.53 199.53 0 0 1-22.22 198.41 146.25 146.25 0 0 0 22.22-198.41z" fill="#f9d611" opacity=".7"></path></svg></svg> <!----></g></g></g></g></g></g> <!----></g><defs v-gra="od"></defs></svg>